<svg width="320" height="230" viewBox="0 0 320 230" fill="none" xmlns="http://www.w3.org/2000/svg">
<g clip-path="url(#clip0_4867_150)">
<path d="M53.6982 220.778C53.4418 220.79 53.1879 220.723 52.9711 220.586C52.7542 220.449 52.5848 220.249 52.4858 220.012C52.3868 219.776 52.363 219.515 52.4175 219.265C52.4721 219.014 52.6025 218.787 52.7909 218.613L52.8767 218.273C52.8654 218.245 52.8541 218.218 52.8426 218.191C52.5843 217.582 52.1515 217.063 51.5985 216.699C51.0456 216.335 50.3971 216.142 49.7346 216.144C49.072 216.147 48.425 216.344 47.8748 216.713C47.3245 217.081 46.8956 217.603 46.6418 218.214C45.6276 220.652 44.3364 223.093 44.0185 225.671C43.8784 226.81 43.9375 227.965 44.193 229.084C41.811 223.899 40.5741 218.262 40.5661 212.558C40.5656 211.126 40.6453 209.696 40.8048 208.273C40.9367 207.107 41.1196 205.949 41.3535 204.8C42.6302 198.562 45.3714 192.715 49.3519 187.74C51.2785 186.691 52.8365 185.078 53.816 183.118C54.1709 182.413 54.4217 181.661 54.5607 180.885C54.3433 180.913 53.7412 177.61 53.9051 177.407C53.6023 176.949 53.0602 176.721 52.7294 176.273C51.0843 174.047 48.8179 174.436 47.6347 177.461C45.1071 178.734 45.0826 180.845 46.6335 182.876C47.6202 184.168 47.7558 185.916 48.6216 187.299C48.5325 187.413 48.4398 187.523 48.3508 187.637C46.7226 189.726 45.3035 191.97 44.1138 194.336C44.4031 191.685 44.0579 189.004 43.1064 186.513C42.1421 184.192 40.3346 182.236 38.7429 180.229C36.8311 177.819 32.9106 178.871 32.5737 181.927C32.5705 181.956 32.5673 181.986 32.5642 182.015C32.8006 182.149 33.032 182.29 33.2585 182.439C33.5429 182.629 33.7634 182.9 33.8909 183.217C34.0183 183.534 34.047 183.881 33.973 184.215C33.899 184.548 33.7258 184.851 33.4761 185.085C33.2265 185.318 32.912 185.471 32.5739 185.523L32.5393 185.528C32.6235 186.379 32.7724 187.221 32.9846 188.049C30.9426 195.93 35.351 198.8 41.6456 198.929C41.7846 199 41.92 199.072 42.059 199.139C40.8637 202.52 40.114 206.041 39.8286 209.614C39.6671 211.722 39.6766 213.84 39.8571 215.946L39.8464 215.872C39.3904 213.529 38.1382 211.416 36.3015 209.888C33.5734 207.651 29.7192 206.828 26.7762 205.03C26.4634 204.83 26.0997 204.723 25.728 204.722C25.3563 204.721 24.9921 204.826 24.6784 205.025C24.3646 205.224 24.1144 205.508 23.9572 205.844C23.8 206.18 23.7425 206.554 23.7913 206.922C23.7952 206.948 23.7993 206.974 23.8033 207.001C24.2421 207.179 24.6692 207.384 25.0824 207.616C25.3188 207.749 25.5502 207.89 25.7766 208.039C26.0611 208.229 26.2815 208.5 26.409 208.817C26.5365 209.134 26.5651 209.482 26.4911 209.815C26.4171 210.148 26.2439 210.452 25.9943 210.685C25.7446 210.918 25.4302 211.071 25.092 211.123L25.0574 211.129C25.0325 211.132 25.0111 211.136 24.9862 211.139C25.7358 212.926 26.7879 214.57 28.0965 216C29.3732 222.879 34.857 223.532 40.7229 221.529H40.7264C41.3701 224.32 42.3026 227.037 43.509 229.635H53.4491C53.4847 229.525 53.5168 229.411 53.5488 229.301C52.6288 229.359 51.7051 229.304 50.7984 229.138C51.5359 228.235 52.2734 227.324 53.0109 226.421C53.0273 226.404 53.0428 226.386 53.0572 226.368C53.4313 225.906 53.8089 225.447 54.183 224.985L54.1832 224.984C54.2031 223.567 54.0399 222.154 53.6982 220.778Z" fill="#465A33"/>
<path d="M65.1309 229.414H81.171C83.9144 220.195 81.1857 198.409 84.8017 189.504C91.7391 172.431 100.602 154.416 117.144 146.079C124.207 142.519 131.908 141.129 139.772 141.204C150.637 141.307 161.806 144.218 172.033 148.075C176.216 149.649 180.361 151.381 184.49 153.15C200.044 159.82 215.43 167.086 232.157 169.049C253.324 171.532 278.211 162.081 283.992 141.724C288.404 126.138 280.458 109.957 272.124 96.0371C263.79 82.1174 254.475 67.2239 255.997 51.1077C256.002 51.0537 256.008 50.9941 256.018 50.94C256.591 45.1514 260.054 40.9913 264.892 38.3242H243.829C243.551 53.3584 252.266 66.6288 260.109 79.7316C268.443 93.6459 276.389 109.832 271.977 125.418C266.196 145.77 218.324 121.914 197.157 119.425C191.18 118.727 200.675 121.21 194.976 119.425C186.037 116.628 185.046 142.281 176.347 138.516C170.931 136.168 165.51 133.836 160.017 131.764C157.743 130.904 155.42 130.098 153.069 129.351C153.067 129.351 153.065 129.351 153.063 129.35C153.061 129.349 153.06 129.348 153.058 129.346C137.274 124.358 120.013 122.416 105.429 129.627C105.33 129.676 105.227 129.725 105.129 129.773C88.5867 138.105 79.724 156.12 72.7865 173.193C67.0544 187.308 67.956 214.526 65.1309 229.414Z" fill="#465A33"/>
<path d="M160.213 228.942C81.9309 230.597 80.2144 196.375 80.2144 155.671C80.2144 114.967 115.912 83.125 160.148 83.125C204.383 83.125 239.516 114.955 239.516 155.658C239.516 196.362 204.449 228.942 160.213 228.942Z" fill="#1C1C1C"/>
<path d="M159.767 229.386C81.4851 231.04 79.7686 196.819 79.7686 156.115C79.7686 115.411 115.757 82.2969 159.993 82.2969C204.229 82.2969 240.218 115.412 240.218 156.115C240.218 196.818 204.003 229.386 159.767 229.386ZM159.993 84.3281C116.974 84.3281 82.7005 116.537 81.976 156.115C81.3022 192.927 123.803 238.864 159.993 227.903C179.401 208.235 234.272 187.052 238.01 156.115C242.764 116.774 203.012 84.3281 159.993 84.3281Z" fill="#3F3D56"/>
<path d="M2.34891e-06 229.471C-0.000205466 229.541 0.0133781 229.609 0.0399716 229.674C0.0665651 229.738 0.105644 229.797 0.154959 229.846C0.204275 229.895 0.262854 229.934 0.327327 229.961C0.3918 229.987 0.460894 230.001 0.530635 230H319.469C319.61 230 319.745 229.945 319.845 229.845C319.944 229.746 320 229.611 320 229.471C320 229.331 319.944 229.196 319.845 229.097C319.745 228.997 319.61 228.941 319.469 228.941H0.530635C0.460895 228.941 0.391801 228.955 0.327329 228.981C0.262857 229.008 0.204278 229.047 0.154963 229.096C0.105648 229.145 0.0665694 229.204 0.0399752 229.268C0.0133811 229.332 -0.00020369 229.401 2.34891e-06 229.471Z" fill="#1C1C1C"/>
<path d="M214.906 222.694H209.398L206.778 201.492L214.907 201.493L214.906 222.694Z" fill="#A0616A"/>
<path d="M215.1 228.427L198.164 228.426V228.212C198.164 226.467 198.858 224.794 200.095 223.56C201.331 222.327 203.007 221.633 204.756 221.633L207.85 219.291L213.622 221.634L215.101 221.634L215.1 228.427Z" fill="#2F2E41"/>
<path d="M206.537 173.548C200.248 167.453 193.02 162.404 185.129 158.592L181.104 163.126L183.668 157.902C173.106 153.089 161.64 150.568 150.029 150.507C138.418 150.446 126.926 152.845 116.314 157.547L118.405 162.08L115.194 158.052C106.905 161.9 99.3186 167.105 92.7501 173.451C92.0748 174.079 91.6577 174.935 91.5797 175.853C91.546 176.352 91.62 176.852 91.7966 177.319C91.9733 177.787 92.2485 178.211 92.6037 178.564C93.6158 179.042 95.0579 180.139 97.2006 183.151C97.8577 183.798 98.742 184.163 99.6649 184.169C100.588 184.174 101.476 183.82 102.141 183.181C114.867 170.888 131.883 164.015 149.594 164.015C167.304 164.015 184.321 170.888 197.046 183.181C197.711 183.82 198.6 184.174 199.523 184.169C200.446 184.163 201.33 183.798 201.987 183.151C204.143 181.215 204.647 178.48 206.499 178.648C207.152 178.018 207.547 177.17 207.61 176.266C207.638 175.763 207.556 175.259 207.371 174.79C207.186 174.321 206.902 173.898 206.537 173.548Z" fill="#565656"/>
<path d="M164.546 180.147L159.038 180.146L156.418 158.945L164.547 158.946L164.546 180.147Z" fill="#A0616A"/>
<path d="M164.74 185.88L147.803 185.879V185.665C147.803 183.921 148.498 182.247 149.734 181.013C150.97 179.78 152.647 179.087 154.395 179.086L157.49 176.744L163.262 179.087L164.74 179.087L164.74 185.88Z" fill="#2F2E41"/>
<path d="M221.204 102.088L182.117 106.163L172.513 115.634L157.236 120.612C155.313 121.239 153.627 122.437 152.404 124.045C151.182 125.654 150.481 127.597 150.395 129.615C149.997 138.913 149.211 154.351 148.382 154.189C147.195 153.958 149.567 159.743 151.228 159.407C152.888 159.071 154.615 162.843 153.467 163.514C152.319 164.185 154.232 169.922 154.232 169.922L166.196 167.999C167.693 156.725 173.163 144.843 166.717 136.548C177.634 133.013 187.252 130.056 194.324 128.234L198.149 126.65L206.09 210.856L217.32 211.04C220.419 195.132 221.975 180.813 219.553 170.599C219.553 170.599 219.901 139.914 221.229 140.25C222.557 140.585 221.431 136.588 221.431 136.588C221.431 136.588 220.268 133.183 221.697 131.771C223.127 130.359 222.234 122.052 222.234 122.052C224.596 114.191 223.885 107.7 221.204 102.088Z" fill="#2F2E41"/>
<path d="M225.824 84.9052C226.211 83.1726 226.598 81.4399 226.986 79.707C228.073 74.8547 229.158 70.0046 230.242 65.1566C231.665 58.8047 233.094 52.2315 231.87 45.8395C231.687 44.8782 231.43 43.9323 231.102 43.0101C229.269 37.7776 225.221 33.1925 219.853 32.2269L218.976 28.9656L206.998 27.4941L204.731 30.6143C199.851 30.2249 196.955 35.0737 193.589 39.0695L192.251 40.4045C191.276 41.6213 191.076 46.1924 190.468 47.5243C187.761 53.447 191.491 47.6912 191.359 54.1992C191.224 60.9431 189.895 67.4872 189.758 74.2307C189.744 74.9543 188.184 75.506 187.915 76.7746C187.77 77.4593 188.979 78.7294 188.796 79.4949C188.639 80.1482 189.42 82.7741 189.253 83.4494C188.475 86.5822 186.714 87.8157 186.637 89.3604C186.602 89.9549 186.513 90.545 186.372 91.1236C186.276 91.5342 184.925 91.0422 184.794 91.4592C184.573 92.1598 185.545 93.7732 185.279 94.4745C184.763 95.8317 185.11 98.2288 184.794 99.469C183.469 104.676 183.977 102.61 181.104 107.153C188.459 109.372 191.635 116.803 199.2 118.14C199.541 117.041 199.881 115.938 200.22 114.832C201.223 114.896 202.232 114.956 203.241 115.012C203.297 115.972 203.354 116.932 203.411 117.886C211.08 118.38 218.771 118.421 226.445 118.011C226.188 117.242 225.982 116.456 225.83 115.659C225.409 113.443 226.314 111.04 226.411 108.847C226.479 107.222 225.705 105.842 225.728 104.092C225.733 103.768 227.555 103.495 227.549 103.165C227.521 100.257 225.864 96.3646 226.411 93.507C226.98 90.5698 225.175 87.8259 225.824 84.9061L225.824 84.9052Z" fill="#3F3D56"/>
<path d="M169.796 14.6426C168.781 14.6438 167.807 15.0469 167.089 15.7635C166.371 16.4802 165.967 17.4519 165.966 18.4654V41.4997C165.967 42.5132 166.371 43.4848 167.089 44.2015C167.807 44.9181 168.781 45.3213 169.796 45.3224H176.937C177.952 45.3213 178.926 44.9181 179.644 44.2015C180.362 43.4848 180.766 42.5132 180.767 41.4997C181.905 29.9255 181.487 23.6792 180.767 18.4654C180.766 17.4519 180.362 16.4802 179.644 15.7635C178.926 15.0469 177.952 14.6438 176.937 14.6426L169.796 14.6426Z" fill="#565656"/>
<path d="M168.905 14.6426C167.889 14.6438 166.915 15.0469 166.197 15.7635C165.479 16.4802 165.075 17.4518 165.074 18.4653C164.664 27.5198 164.379 36.1549 165.074 41.4996C165.075 42.5131 165.479 43.4848 166.197 44.2015C166.915 44.9182 167.889 45.3213 168.905 45.3224H176.045C177.061 45.3213 178.034 44.9181 178.752 44.2015C179.471 43.4848 179.875 42.5132 179.876 41.4997V18.4654C179.875 17.4519 179.471 16.4802 178.752 15.7636C178.034 15.0469 177.061 14.6438 176.045 14.6426L168.905 14.6426Z" fill="#3F3D56"/>
<path d="M187.287 48.1669C187.287 48.1669 194.041 47.8935 190.603 50.8037C188.366 52.6975 183.329 65.8815 178.096 67.4764C177.48 67.6638 176.831 67.7215 176.191 67.6458C175.552 67.5701 174.935 67.3626 174.38 67.0365C173.824 66.7104 173.343 66.2727 172.966 65.7513C172.59 65.2299 172.325 64.6361 172.191 64.0074L167.447 41.9407L173.643 41L177.42 58.465L187.287 48.1669Z" fill="#A0616A"/>
<path d="M170.888 43.5526C173.309 43.5526 175.271 41.5943 175.271 39.1786C175.271 36.763 173.309 34.8047 170.888 34.8047C168.468 34.8047 166.505 36.763 166.505 39.1786C166.505 41.5943 168.468 43.5526 170.888 43.5526Z" fill="#A0616A"/>
<path d="M196.448 36.1087C200.463 39.1178 201.645 48.9851 199.122 53.3173C194.3 61.5989 184.792 67.975 184.386 67.0895C183.831 65.8768 182.863 67.5052 182.896 68.0382C182.929 68.5712 181.097 68.4123 181.311 68.9764C181.524 69.5405 180.079 69.663 179.451 69.9901C179.451 69.9901 173.705 70.087 171.893 67.4705C170.08 64.8539 169.837 61.238 169.837 61.238L167.587 58.5956L179.518 51.6355L178.534 56.3334L184.486 49.4172L185.746 46.6425L187.755 45.6184L188.421 43.5276L190.274 42.6915L197.602 34.1758L196.448 36.1087Z" fill="#3F3D56"/>
<path d="M229.414 117.167C229.915 116.838 230.337 116.403 230.651 115.892C230.965 115.382 231.163 114.81 231.231 114.215C231.3 113.62 231.236 113.017 231.046 112.45C230.856 111.882 230.543 111.363 230.13 110.929L230.973 73.5117L223.565 74.6619L224.087 110.954C223.402 111.695 223.014 112.661 222.995 113.669C222.976 114.676 223.328 115.656 223.985 116.422C224.642 117.188 225.557 117.687 226.558 117.824C227.558 117.962 228.574 117.728 229.414 117.167Z" fill="#A0616A"/>
<path d="M229.737 41.6172C229.737 41.6172 229.245 41.9879 231.765 45.82C232.265 46.5799 232.604 49.6442 232.841 53.6429C232.918 54.9457 233.661 55.8609 233.719 57.3146C233.768 58.5483 233.134 60.3061 233.172 61.5855C233.192 62.2679 233.701 62.8617 233.719 63.5444C233.726 63.829 233.242 64.2043 233.249 64.4879C233.256 64.7937 233.263 65.0986 233.27 65.4026C233.443 73.0026 233.481 79.8667 233.653 79.7508C234.019 79.5036 233.108 80.7813 233.564 80.9946C234.019 81.208 233.175 82.2665 233.393 82.8151C233.658 83.4835 233.328 84.2209 233.12 84.8919C232.519 86.8294 232.389 88.4931 231.866 89.4135C232.487 89.7688 232.971 90.3202 233.243 90.9806C233.516 91.6411 233.56 92.3731 233.369 93.0614L222.928 91.1775C221.655 89.1422 221.839 87.0062 222.706 86.634L222.448 80.0112L219.474 45.7476L228.189 41.8643L229.737 41.6172Z" fill="#3F3D56"/>
<path d="M164.933 20.5508C164.783 20.5508 164.661 20.6221 164.661 20.7097V21.981C164.661 22.0686 164.783 22.1399 164.933 22.1399C165.083 22.1399 165.205 22.0686 165.205 21.981V20.7097C165.205 20.6221 165.083 20.5508 164.933 20.5508Z" fill="#3F3D56"/>
<path d="M164.933 23.9199C164.783 23.9199 164.661 23.9912 164.661 24.0788V26.542C164.661 26.6296 164.783 26.7009 164.933 26.7009C165.083 26.7009 165.205 26.6296 165.205 26.542V24.0788C165.205 23.9912 165.083 23.9199 164.933 23.9199Z" fill="#3F3D56"/>
<path d="M180.093 24.3633C180.013 24.3724 179.94 24.4124 179.889 24.4746C179.838 24.5369 179.814 24.6166 179.821 24.6965V29.862C179.813 29.9023 179.814 29.944 179.823 29.984C179.833 30.0239 179.852 30.0612 179.878 30.0931C179.904 30.1251 179.937 30.1508 179.974 30.1684C180.011 30.1861 180.052 30.1953 180.093 30.1953C180.134 30.1953 180.175 30.1861 180.212 30.1684C180.249 30.1508 180.282 30.1251 180.308 30.0931C180.334 30.0612 180.353 30.0239 180.363 29.984C180.372 29.944 180.373 29.9023 180.365 29.862V24.6965C180.372 24.6166 180.348 24.5369 180.297 24.4746C180.246 24.4124 180.173 24.3724 180.093 24.3633Z" fill="#3F3D56"/>
<path d="M164.487 27.8594C164.337 27.8594 164.215 27.9306 164.215 28.0183V30.4814C164.215 30.5691 164.337 30.6403 164.487 30.6403C164.637 30.6403 164.759 30.5691 164.759 30.4814V28.0183C164.759 27.9306 164.637 27.8594 164.487 27.8594Z" fill="#3F3D56"/>
<path d="M212.148 26.3402C218.33 26.3402 223.342 21.3387 223.342 15.1691C223.342 8.99951 218.33 3.99805 212.148 3.99805C205.966 3.99805 200.955 8.99951 200.955 15.1691C200.955 21.3387 205.966 26.3402 212.148 26.3402Z" fill="#A0616A"/>
<path d="M224.646 20.3018C223.773 22.0471 222.941 23.1386 221.43 24.1143C221.353 23.8919 221.291 23.6646 221.244 23.434C221.083 23.7928 220.926 24.1507 220.762 24.5103C219.806 25.0429 220.838 24.2211 219.273 24.8167L217.957 22.5626C217.596 21.4925 218.107 20.3272 218.757 19.4012C219.407 18.479 220.216 17.6335 220.569 16.5613C220.921 15.4892 220.608 14.0687 219.552 13.6697C218.511 13.2711 217.361 14.0272 216.255 13.8958C214.978 13.7456 214.109 12.4124 214.04 11.1297C213.971 9.8471 214.495 8.61557 215.008 7.44183C213.462 8.54769 208.672 10.5289 206.065 10.6236C205.995 9.8119 205.619 9.05695 205.013 8.51076C205.119 9.24974 204.939 10.0013 204.509 10.6122C201.956 10.4815 201.476 14.182 200.158 12.8421C200.569 12.6354 199.053 8.03658 199.464 7.82995C199.148 6.96414 198.832 6.10084 198.516 5.24006C199.103 5.3876 199.694 5.53811 200.284 5.68483C200.321 5.37009 200.417 5.06509 200.567 4.78581C200.988 4.54637 201.435 4.35769 201.901 4.22375C202.051 4.18377 202.205 4.14299 202.36 4.10976C202.59 4.05865 202.823 4.02078 203.057 3.99636C202.718 3.79995 202.375 3.60811 202.035 3.40794C201.994 3.38497 201.957 3.36118 201.917 3.33822C202.395 3.01038 202.894 2.71468 203.411 2.45307C205.593 1.3143 207.856 0.153937 210.315 0.0119938C211.913 -0.0895076 213.496 0.365384 214.795 1.29905C215.915 2.10192 217.272 2.50913 218.65 2.45623C219.32 2.45113 219.983 2.59843 220.587 2.88694C220.31 3.16537 220.007 3.4169 219.682 3.63814C220.392 3.65655 221.098 3.67577 221.808 3.69797C222.603 4.42039 223.274 5.26858 223.793 6.2085C226.282 10.4509 226.85 15.9067 224.646 20.3018Z" fill="#2F2E41"/>
<path d="M188.7 194.339C188.615 193.781 188.398 193.251 188.067 192.794C187.736 192.337 187.3 191.966 186.796 191.711C182.064 189.294 177.104 187.349 171.989 185.904L167.203 192.201L170.74 185.557C157.647 182.051 143.885 181.856 130.697 184.99L132.537 190.055L129.531 185.28C123.592 186.77 117.843 188.927 112.392 191.711C111.89 191.967 111.456 192.338 111.125 192.794C110.794 193.25 110.576 193.777 110.488 194.333C110.4 194.889 110.445 195.458 110.619 195.993C110.794 196.528 111.092 197.014 111.49 197.413C113.56 197.54 114.926 199.458 116.29 202.203C116.813 202.718 117.482 203.058 118.206 203.179C118.931 203.299 119.675 203.193 120.336 202.875C129.477 198.536 139.472 196.285 149.594 196.285C159.716 196.285 169.711 198.536 178.852 202.875C179.513 203.193 180.257 203.299 180.981 203.179C181.705 203.059 182.374 202.718 182.897 202.203C183.717 199.984 185.407 198.672 187.697 197.413C188.098 197.017 188.398 196.532 188.572 195.997C188.746 195.462 188.791 194.894 188.7 194.339Z" fill="#565656"/>
<path d="M162.256 216.025C161.208 215.861 160.153 215.717 159.092 215.595L154.934 222.198L158.032 215.482C152.998 214.969 147.927 214.916 142.882 215.323L146.054 222.198L141.785 215.418C140.155 215.572 138.538 215.775 136.932 216.025C136.382 216.106 135.867 216.341 135.444 216.701C135.022 217.062 134.71 217.534 134.545 218.063C134.368 218.597 134.344 219.169 134.475 219.716C134.606 220.263 134.887 220.763 135.286 221.159C137.003 222.838 138.896 225.169 142.007 227.867C142.31 228.174 142.677 228.412 143.082 228.564C143.486 228.715 143.919 228.778 144.35 228.746C146.074 228.619 147.838 228.554 149.594 228.554C151.349 228.554 153.114 228.619 154.838 228.746C155.269 228.777 155.701 228.715 156.106 228.563C156.51 228.411 156.877 228.174 157.181 227.867C160.394 225.13 162.017 222.621 163.902 221.159C164.301 220.763 164.582 220.263 164.713 219.716C164.844 219.169 164.819 218.597 164.643 218.063C164.478 217.534 164.166 217.062 163.744 216.701C163.321 216.34 162.806 216.106 162.256 216.025Z" fill="#565656"/>
</g>
<defs>
<clipPath id="clip0_4867_150">
<rect width="320" height="230" fill="white"/>
</clipPath>
</defs>
</svg>
