<svg width="350" height="244" viewBox="0 0 350 244" fill="none" xmlns="http://www.w3.org/2000/svg">
<path d="M292.438 37.5187L265.438 37.7821C264.169 31.5247 259.905 15.1063 263.745 10.628C263.92 8.94254 264.737 7.38959 266.027 6.29246C267.316 5.19533 268.979 4.63858 270.668 4.73809C274.853 -1.82266 281.823 -0.837605 286.534 3.25987C291.275 4.8984 293.063 7.80934 292.438 11.7596C295.949 14.8379 296.597 18.5831 295.021 22.8462L292.438 37.5187Z" fill="#2F2E41"/>
<path d="M289.839 54.176L270.359 51.4747L266.463 45.7718C271.83 42.2065 273.729 37.2266 271.258 30.4642L284.744 30.1641C284.112 36.1861 286.101 40.8488 291.637 43.6708L289.839 54.176Z" fill="#FFB9B9"/>
<path d="M265.753 230.149L265.009 240.347C264.975 240.809 265.04 241.272 265.2 241.707C265.36 242.141 265.61 242.536 265.935 242.865C266.26 243.195 266.651 243.451 267.083 243.616C267.514 243.781 267.976 243.853 268.438 243.825L273.668 243.507C273.91 243.493 274.146 243.425 274.36 243.308C274.573 243.192 274.758 243.03 274.901 242.833C275.045 242.637 275.143 242.412 275.19 242.173C275.237 241.935 275.231 241.689 275.172 241.453L272.268 229.822L265.753 230.149Z" fill="#E6E6E6"/>
<path d="M282.686 229.822L279.783 241.453C279.724 241.689 279.718 241.935 279.765 242.173C279.812 242.412 279.91 242.637 280.054 242.833C280.197 243.03 280.382 243.192 280.595 243.308C280.809 243.425 281.045 243.493 281.287 243.507L286.517 243.825C286.979 243.853 287.441 243.781 287.872 243.616C288.304 243.451 288.695 243.195 289.02 242.865C289.345 242.536 289.595 242.141 289.755 241.707C289.915 241.272 289.98 240.809 289.946 240.347L289.201 230.149L282.686 229.822Z" fill="#E6E6E6"/>
<path d="M289.539 231.566L282.481 230.857L275.454 155.628L272.798 230.614L265.864 230.366L254.176 126.514H298.829L289.539 231.566Z" fill="#565656"/>
<path d="M278.75 35.2674C286.199 35.2674 292.236 29.2202 292.236 21.7606C292.236 14.3011 286.199 8.25391 278.75 8.25391C271.302 8.25391 265.265 14.3011 265.265 21.7606C265.265 29.2202 271.302 35.2674 278.75 35.2674Z" fill="#FFB9B9"/>
<path d="M305.422 128.915L250.879 129.515C258.974 98.653 263.816 69.9846 255.375 50.2759L268.861 43.6726C275.363 50.4654 282.605 49.7651 290.438 43.0723L303.324 46.3739C301.117 72.2189 302.106 99.8991 305.422 128.915Z" fill="#565656"/>
<path d="M235.896 97.0979L269.76 110.605L277.331 112.835C277.67 112.935 278.025 112.965 278.376 112.924C278.726 112.882 279.065 112.771 279.371 112.595C279.678 112.419 279.945 112.183 280.159 111.902C280.372 111.62 280.526 111.297 280.611 110.955C280.761 110.353 280.694 109.718 280.421 109.161C280.148 108.605 279.687 108.164 279.12 107.915L271.258 105.502L247.583 91.6952L252.528 78.6387L242.189 73.0859L235.896 97.0979Z" fill="#FFB9B9"/>
<path d="M236.195 72.4864C242.638 75.0039 247.762 79.3004 251.778 85.0927L264.365 66.7836L255.375 50.2754L236.195 72.4864Z" fill="#565656"/>
<path d="M293.949 19.5708C288.476 18.1584 283.094 17.9644 277.863 19.756C274.531 21.3725 270.529 21.2235 266.079 19.8917V6.41602L290.105 7.05771L293.949 19.5708Z" fill="#2F2E41"/>
<path d="M269.647 81.3613C268.589 81.3625 267.573 81.7844 266.824 82.5343C266.076 83.2843 265.655 84.3011 265.653 85.3617L267.23 118.415C267.231 119.476 267.652 120.493 268.401 121.243C269.15 121.993 270.165 122.415 271.224 122.416H289.249C290.308 122.415 291.323 121.993 292.072 121.243C292.821 120.493 293.242 119.476 293.243 118.415L294.82 85.3617C294.819 84.3011 294.398 83.2843 293.649 82.5343C292.9 81.7844 291.885 81.3625 290.826 81.3613H269.647Z" fill="#3F3D56"/>
<path d="M320.79 94.602L291.273 106.374L289.046 107.262C288.975 107.289 288.904 107.313 288.829 107.337L281.368 109.536C280.414 109.816 279.094 108.529 278.321 107.641C277.939 107.213 277.722 106.662 277.71 106.087C277.699 105.513 277.893 104.953 278.258 104.51C278.361 104.391 278.475 104.282 278.597 104.183C278.885 103.959 279.223 103.809 279.582 103.748L287.036 102.28C287.303 102.227 287.56 102.131 287.796 101.996L291.273 99.9667L309.321 89.4426C309.823 89.1504 310.205 88.6892 310.399 88.1412C310.593 87.5933 310.587 86.994 310.381 86.4503L306.936 77.3512C306.725 76.7945 306.723 76.1798 306.931 75.6219C307.139 75.064 307.543 74.6011 308.067 74.3195L313.774 71.2562C314.101 71.0809 314.462 70.9819 314.832 70.9669C315.202 70.9518 315.57 71.021 315.909 71.1692C316.249 71.3174 316.55 71.5408 316.791 71.8226C317.031 72.1043 317.205 72.4371 317.298 72.7958L322.252 91.6966C322.405 92.2762 322.34 92.8916 322.071 93.4267C321.802 93.9619 321.346 94.3799 320.79 94.602Z" fill="#FFB9B9"/>
<path d="M322.504 69.1844C316.061 71.7019 310.937 75.9984 306.921 81.7907L294.334 63.4816L303.325 46.373L322.504 69.1844Z" fill="#565656"/>
<path d="M287.725 33.7817C281.825 36.2395 275.639 36.1397 269.2 33.7817C271.074 30.5787 268.273 28.0701 266.835 24.8367L290.878 24.1211C289.04 26.93 286.327 30.2487 287.725 33.7817Z" fill="white"/>
<path d="M290.624 24.6565L290.345 24.3775L290.739 23.9827L293.093 21.2305L293.393 21.4871L291.028 24.2503L290.624 24.6565Z" fill="white"/>
<path d="M265.188 22.9837L264.936 23.2871L267.3 25.2609L267.553 24.9575L265.188 22.9837Z" fill="white"/>
<path d="M291.303 26.9774L287.164 33.4902L287.496 33.7023L291.636 27.1894L291.303 26.9774Z" fill="white"/>
<path d="M265.622 26.9775L265.29 27.1895L269.428 33.7029L269.761 33.4909L265.622 26.9775Z" fill="white"/>
<path d="M292.061 99.4082V106.56L289.575 107.551C289.496 107.582 289.417 107.609 289.333 107.635L281.005 110.089C279.94 110.402 278.466 108.966 277.604 107.974C277.177 107.496 276.935 106.881 276.922 106.24C276.909 105.599 277.126 104.975 277.533 104.48C277.648 104.347 277.775 104.225 277.912 104.114C278.233 103.864 278.611 103.697 279.012 103.63L287.331 101.99C287.63 101.932 287.916 101.824 288.18 101.673L292.061 99.4082Z" fill="white"/>
<path d="M295.663 73.8994H294.239C294.239 53.7233 290.091 39.6629 286.049 39.6629L285.693 38.2363C289.318 38.2363 291.629 44.0882 292.929 48.9974C294.692 55.6527 295.663 64.4964 295.663 73.8994Z" fill="#3F3D56"/>
<path d="M262.904 68.9062H261.479C261.479 50.4281 265.656 38.9492 271.806 38.9492L271.45 40.3757C267.196 40.3757 262.904 49.1976 262.904 68.9062Z" fill="#3F3D56"/>
<path d="M294.951 77.8221C296.918 77.8221 298.512 76.2254 298.512 74.2558C298.512 72.2861 296.918 70.6895 294.951 70.6895C292.984 70.6895 291.39 72.2861 291.39 74.2558C291.39 76.2254 292.984 77.8221 294.951 77.8221Z" fill="#3F3D56"/>
<path d="M257.207 77.4658H255.782C255.782 72.3529 258.657 68.1934 262.192 68.1934V69.6199C259.443 69.6199 257.207 73.1395 257.207 77.4658Z" fill="#3F3D56"/>
<path d="M268.601 77.4658H267.177C267.177 73.1395 264.941 69.6199 262.192 69.6199V68.1934C265.726 68.1934 268.601 72.3529 268.601 77.4658Z" fill="#3F3D56"/>
<path d="M267.889 79.2476C268.676 79.2476 269.313 78.6089 269.313 77.8211C269.313 77.0332 268.676 76.3945 267.889 76.3945C267.103 76.3945 266.465 77.0332 266.465 77.8211C266.465 78.6089 267.103 79.2476 267.889 79.2476Z" fill="#3F3D56"/>
<path d="M256.495 79.2476C257.281 79.2476 257.919 78.6089 257.919 77.8211C257.919 77.0332 257.281 76.3945 256.495 76.3945C255.708 76.3945 255.07 77.0332 255.07 77.8211C255.07 78.6089 255.708 79.2476 256.495 79.2476Z" fill="#3F3D56"/>
<path d="M84.8475 29.8821L59.8328 34.1248C59.2148 34.2304 58.5797 34.1026 58.0504 33.7663C57.5211 33.4299 57.1351 32.9088 56.9673 32.3039C55.16 25.7709 51.3815 17.2484 55.0501 12.9702C55.237 11.1703 56.1098 9.51201 57.4867 8.34045C58.8637 7.1689 60.6388 6.57436 62.4424 6.68062C66.9111 -0.325218 74.3543 0.726665 79.3851 5.10212C84.448 6.85181 86.3568 9.96023 85.6893 14.1785C87.8765 16.096 89.0232 18.2558 89.265 20.6264C89.3797 21.9456 89.2121 23.2741 88.7734 24.5232C88.3348 25.7724 87.6352 26.9135 86.7213 27.8704L84.8475 29.8821Z" fill="#2F2E41"/>
<path d="M80.9585 49.6062L61.5664 48.4637C63.4669 44.095 64.226 39.8882 63.4676 35.8965H77.9166C77.8838 38.9613 79.4066 44.2629 80.9585 49.6062Z" fill="#9F616A"/>
<path d="M57.6156 229.071L56.8203 239.961C56.7843 240.454 56.8539 240.949 57.0245 241.413C57.1952 241.877 57.4629 242.299 57.8096 242.65C58.1564 243.002 58.5742 243.275 59.0351 243.452C59.496 243.629 59.9893 243.705 60.4819 243.675L66.067 243.336C66.3258 243.32 66.5779 243.248 66.8055 243.123C67.0331 242.999 67.2306 242.826 67.3838 242.617C67.5371 242.407 67.6425 242.166 67.6924 241.912C67.7424 241.657 67.7357 241.394 67.6728 241.142L64.5726 228.723L57.6156 229.071Z" fill="#E6E6E6"/>
<path d="M75.6973 228.723L72.5971 241.142C72.5343 241.394 72.5276 241.657 72.5775 241.912C72.6274 242.166 72.7328 242.407 72.8861 242.617C73.0394 242.826 73.2368 242.999 73.4644 243.123C73.692 243.248 73.9441 243.32 74.2029 243.336L79.788 243.675C80.2806 243.705 80.7739 243.629 81.2348 243.452C81.6957 243.275 82.1135 243.002 82.4603 242.65C82.8071 242.299 83.0747 241.877 83.2454 241.413C83.416 240.949 83.4857 240.454 83.4497 239.961L82.6543 229.071L75.6973 228.723Z" fill="#E6E6E6"/>
<path d="M83.0147 230.584L75.4779 229.826L67.9742 149.494L65.1383 229.567L57.7335 229.301L45.2529 118.404H92.9353L83.0147 230.584Z" fill="#565656"/>
<path d="M71.0731 40.5199C79.0264 40.5199 85.4738 34.0625 85.4738 26.0969C85.4738 18.1312 79.0264 11.6738 71.0731 11.6738C63.1198 11.6738 56.6724 18.1312 56.6724 26.0969C56.6724 34.0625 63.1198 40.5199 71.0731 40.5199Z" fill="#9F616A"/>
<path d="M87.3035 19.2057C81.4587 18.1862 75.7122 18.0462 70.1261 19.3393C66.5677 20.506 62.2944 20.3985 57.542 19.4372V9.71094L83.1985 10.1741L87.3035 19.2057Z" fill="#2F2E41"/>
<path d="M80.6569 37.6695C74.357 40.2941 67.7512 40.1875 60.8754 37.6695C62.8761 34.2492 59.8854 31.5704 58.3501 28.1177L84.024 27.3535C82.0606 30.353 79.1636 33.8968 80.6569 37.6695Z" fill="white"/>
<path d="M56.5825 26.1477L56.3301 26.4512L58.8553 28.5587L59.1077 28.2553L56.5825 26.1477Z" fill="white"/>
<path d="M84.4892 30.4085L80.0688 37.3633L80.4014 37.5753L84.8218 30.6206L84.4892 30.4085Z" fill="white"/>
<path d="M57.043 30.4091L56.7104 30.6211L61.1297 37.5765L61.4623 37.3645L57.043 30.4091Z" fill="white"/>
<path d="M43.6953 91.877L32.6685 85.0221L42.0724 57.4371C43.1213 54.5907 45.1302 52.2008 47.7519 50.6806L50.9198 48.8438L51.1953 76.6719L43.6953 91.877Z" fill="#565656"/>
<path d="M91.3585 105.274L89.7271 91.2788C89.64 83.8918 90.8948 76.75 93.8868 70.1694L95.4077 49.6048L78.6773 42.75C78.626 43.0915 78.5824 43.4327 78.5334 43.7741L70.6923 47.7007L63.0452 45.9601L63.0876 43.5117L47.8781 50.3665C52.9079 73.7865 50.1645 98.1071 41.5151 126.834L61.5522 132.321L61.7188 122.685L79.5762 121.408C79.7601 124.534 79.9079 127.605 79.9937 130.608C90.0701 134.323 90.4162 134.261 99.5971 128.942C95.9409 121.243 93.046 113.231 91.3585 105.274Z" fill="#565656"/>
<path d="M117.081 88.4493L106.815 85.022L90.3931 65.8753L95.4074 49.6055L118.222 81.5948L117.081 88.4493Z" fill="#565656"/>
<path d="M84.9063 103.274C85.0743 104.012 85.5277 104.654 86.1672 105.058C86.8067 105.461 87.58 105.595 88.3177 105.429L97.0325 103.452L95.7729 97.8809L87.0579 99.8571C86.3203 100.025 85.6792 100.479 85.2757 101.119C84.8722 101.76 84.7394 102.535 84.9063 103.274Z" fill="#E6E6E6"/>
<path d="M92.7456 96.8287L97.6887 105.969C106.003 103.646 113.208 96.3243 120.123 87.6889L118.221 81.5957L106.434 84.6423L92.7456 96.8287Z" fill="#565656"/>
<path d="M28.2954 68.1582L37.7848 69.8553L59.475 100.744L47.9522 98.0281L28.2954 68.1582Z" fill="#E6E6E6"/>
<path d="M26.6124 67.7812C26.4677 67.7834 26.3264 67.8245 26.203 67.9001C26.0797 67.9758 25.9789 68.0832 25.9112 68.2112C25.8436 68.3392 25.8114 68.483 25.8183 68.6277C25.8251 68.7724 25.8706 68.9126 25.9501 69.0336L46.2246 99.8427C46.3378 100.015 46.5125 100.137 46.7129 100.184L56.146 102.407C56.3051 102.445 56.4718 102.433 56.6239 102.373C56.7761 102.314 56.9066 102.209 56.9982 102.074C57.0897 101.938 57.1379 101.778 57.1364 101.614C57.1349 101.451 57.0837 101.291 56.9897 101.157L34.7295 69.4572C34.6691 69.3708 34.5924 69.2972 34.5036 69.2406C34.4148 69.184 34.3157 69.1454 34.2121 69.1272L26.7644 67.795C26.7142 67.786 26.6633 67.7814 26.6124 67.7812Z" fill="#3F3D56"/>
<path d="M39.2598 89.8081L39.8233 95.4926L48.715 94.6086C49.4676 94.5338 50.1598 94.1626 50.6392 93.5767C51.1185 92.9907 51.3459 92.2381 51.2712 91.4843C51.1965 90.7305 50.8259 90.0373 50.2409 89.5571C49.6558 89.077 48.9043 88.8493 48.1517 88.9241L39.2598 89.8081Z" fill="#E6E6E6"/>
<path d="M31.5278 89.1495C31.5407 91.0878 32.318 92.9425 33.6903 94.3093C35.0625 95.6761 36.9185 96.4443 38.8539 96.4466H40.316L41.3804 87.5625L32.5672 84.3848L31.5278 89.1495Z" fill="#565656"/>
<path d="M83.3216 28.3357L83.043 28.0566L83.4639 27.635L85.979 24.6953L86.2781 24.9519L83.7528 27.9027L83.3216 28.3357Z" fill="white"/>
<path d="M133.615 242.816H216.385V142.265C216.385 136.941 211.149 132.609 204.713 132.609H145.287C138.851 132.609 133.615 136.941 133.615 142.265V242.816Z" fill="#4D4D4D"/>
<path d="M139.921 238.657H210.079V153.429C210.079 148.916 205.641 145.244 200.185 145.244H149.815C144.36 145.244 139.921 148.916 139.921 153.429V238.657Z" fill="#363636"/>
<path d="M132.99 124.785C130.944 124.785 129.279 126.162 129.279 127.854V136.714C129.279 138.407 130.944 139.784 132.99 139.784H217.011C219.056 139.784 220.721 138.407 220.721 136.714V127.854C220.721 126.162 219.056 124.785 217.011 124.785H132.99Z" fill="#3F3D56"/>
<path d="M150.24 227.729C149.28 227.731 148.359 228.115 147.68 228.795C147.001 229.475 146.618 230.397 146.615 231.359C146.618 232.321 147.001 233.243 147.68 233.923C148.359 234.603 149.28 234.987 150.24 234.989H157.025V227.729H150.24Z" fill="#3F3D56"/>
<path d="M163.252 227.729H156.653V234.989H163.252C164.213 234.987 165.133 234.603 165.812 233.923C166.492 233.243 166.874 232.321 166.877 231.359C166.874 230.397 166.492 229.475 165.812 228.795C165.133 228.115 164.213 227.731 163.252 227.729Z" fill="#565656"/>
<path opacity="0.2" d="M165.618 228.619C166.189 229.276 166.505 230.117 166.505 230.988C166.503 231.95 166.12 232.872 165.441 233.552C164.761 234.232 163.841 234.616 162.881 234.619H156.653V234.991H163.252C164.213 234.988 165.133 234.605 165.812 233.924C166.492 233.244 166.874 232.322 166.877 231.36C166.876 230.84 166.763 230.325 166.546 229.852C166.329 229.379 166.012 228.959 165.618 228.619Z" fill="black"/>
<path d="M180.858 173.046C180.197 172.348 179.287 171.94 178.327 171.912C177.367 171.883 176.435 172.237 175.734 172.894C175.037 173.556 174.63 174.468 174.601 175.429C174.573 176.391 174.926 177.324 175.582 178.026L180.236 182.971L185.512 177.991L180.858 173.046Z" fill="#3F3D56"/>
<path d="M189.783 182.528L185.257 177.719L179.981 182.699L184.508 187.509C185.169 188.207 186.079 188.614 187.039 188.643C187.999 188.671 188.931 188.318 189.632 187.66C190.329 186.998 190.736 186.087 190.764 185.125C190.793 184.164 190.44 183.23 189.783 182.528Z" fill="#565656"/>
<path opacity="0.2" d="M190.76 184.863C190.675 185.73 190.28 186.537 189.647 187.135C188.947 187.793 188.014 188.146 187.054 188.118C186.094 188.089 185.184 187.682 184.523 186.984L180.252 182.445L179.981 182.701L184.508 187.51C185.169 188.208 186.079 188.616 187.039 188.644C187.999 188.673 188.931 188.319 189.632 187.662C190.01 187.304 190.306 186.869 190.501 186.386C190.695 185.903 190.784 185.383 190.76 184.863Z" fill="black"/>
<path d="M161.545 184.493C160.884 183.795 159.974 183.387 159.014 183.359C158.054 183.331 157.122 183.684 156.421 184.342C155.724 185.004 155.317 185.915 155.288 186.876C155.26 187.838 155.613 188.772 156.269 189.474L160.923 194.418L166.199 189.438L161.545 184.493Z" fill="#3F3D56"/>
<path d="M170.47 193.977L165.943 189.168L160.668 194.148L165.194 198.958C165.855 199.656 166.765 200.064 167.725 200.092C168.685 200.12 169.618 199.767 170.318 199.109C171.015 198.447 171.423 197.536 171.451 196.575C171.479 195.613 171.127 194.679 170.47 193.977Z" fill="#565656"/>
<path opacity="0.2" d="M171.446 196.311C171.361 197.177 170.966 197.984 170.334 198.582C169.633 199.24 168.701 199.594 167.741 199.565C166.781 199.537 165.871 199.129 165.21 198.431L160.939 193.893L160.668 194.148L165.194 198.957C165.855 199.655 166.765 200.063 167.725 200.092C168.685 200.12 169.618 199.767 170.318 199.109C170.696 198.751 170.993 198.316 171.187 197.833C171.382 197.35 171.47 196.831 171.446 196.311Z" fill="black"/>
<path d="M180.858 195.151C180.197 194.453 179.287 194.046 178.327 194.017C177.367 193.989 176.435 194.342 175.734 195C175.037 195.662 174.63 196.573 174.601 197.535C174.573 198.496 174.926 199.43 175.582 200.132L180.236 205.077L185.512 200.096L180.858 195.151Z" fill="#3F3D56"/>
<path d="M189.783 204.635L185.257 199.826L179.981 204.807L184.508 209.616C185.169 210.314 186.079 210.722 187.039 210.75C187.999 210.779 188.931 210.425 189.632 209.767C190.329 209.106 190.736 208.194 190.764 207.233C190.793 206.271 190.44 205.337 189.783 204.635Z" fill="#565656"/>
<path opacity="0.2" d="M190.76 206.969C190.675 207.836 190.28 208.643 189.647 209.241C188.947 209.898 188.014 210.252 187.054 210.223C186.094 210.195 185.184 209.787 184.523 209.089L180.252 204.551L179.981 204.806L184.508 209.615C185.169 210.314 186.079 210.721 187.039 210.75C187.999 210.778 188.931 210.425 189.632 209.767C190.01 209.409 190.306 208.974 190.501 208.491C190.695 208.008 190.784 207.489 190.76 206.969Z" fill="black"/>
<path d="M192.639 217.837C193.328 217.167 193.724 216.25 193.741 215.289C193.758 214.327 193.394 213.397 192.728 212.703C192.059 212.014 191.144 211.617 190.184 211.6C189.224 211.583 188.296 211.948 187.603 212.614L182.723 217.335L187.759 222.558L192.639 217.837Z" fill="#3F3D56"/>
<path d="M183.28 226.89L188.027 222.299L182.99 217.076L178.244 221.668C177.555 222.338 177.159 223.254 177.142 224.216C177.125 225.178 177.49 226.107 178.155 226.801C178.824 227.491 179.739 227.888 180.699 227.904C181.66 227.921 182.587 227.557 183.28 226.89Z" fill="#565656"/>
<path opacity="0.2" d="M180.962 227.897C180.096 227.822 179.285 227.436 178.68 226.81C178.015 226.116 177.651 225.187 177.668 224.225C177.685 223.263 178.081 222.347 178.769 221.677L183.249 217.344L182.99 217.076L178.244 221.668C177.555 222.338 177.159 223.254 177.142 224.216C177.125 225.178 177.49 226.107 178.155 226.801C178.517 227.175 178.955 227.467 179.439 227.656C179.924 227.845 180.443 227.927 180.962 227.897Z" fill="black"/>
<path d="M166.626 206.39C167.315 205.719 167.711 204.803 167.728 203.841C167.745 202.879 167.38 201.95 166.715 201.256C166.046 200.566 165.131 200.17 164.171 200.153C163.21 200.136 162.283 200.501 161.59 201.167L156.709 205.888L161.746 211.111L166.626 206.39Z" fill="#3F3D56"/>
<path d="M157.267 215.443L162.013 210.851L156.977 205.629L152.23 210.22C151.541 210.891 151.145 211.807 151.128 212.769C151.112 213.731 151.476 214.66 152.141 215.354C152.81 216.044 153.725 216.441 154.685 216.457C155.646 216.474 156.574 216.109 157.267 215.443Z" fill="#565656"/>
<path opacity="0.2" d="M154.949 216.449C154.082 216.375 153.272 215.989 152.667 215.363C152.002 214.669 151.637 213.74 151.654 212.778C151.671 211.816 152.067 210.9 152.756 210.23L157.235 205.897L156.977 205.629L152.23 210.22C151.541 210.891 151.145 211.807 151.128 212.769C151.112 213.731 151.476 214.66 152.141 215.354C152.503 215.728 152.941 216.019 153.426 216.208C153.91 216.397 154.429 216.48 154.949 216.449Z" fill="black"/>
<path d="M203.676 192.573C204.364 191.903 204.76 190.987 204.777 190.025C204.794 189.063 204.43 188.134 203.765 187.44C203.095 186.75 202.18 186.353 201.22 186.336C200.26 186.32 199.332 186.684 198.639 187.351L193.759 192.072L198.795 197.294L203.676 192.573Z" fill="#3F3D56"/>
<path d="M194.316 201.627L199.063 197.035L194.026 191.812L189.28 196.404C188.591 197.074 188.195 197.991 188.178 198.952C188.162 199.914 188.526 200.844 189.191 201.537C189.86 202.227 190.775 202.624 191.735 202.641C192.696 202.658 193.624 202.293 194.316 201.627Z" fill="#565656"/>
<path opacity="0.2" d="M191.998 202.633C191.132 202.558 190.321 202.173 189.717 201.547C189.051 200.853 188.687 199.923 188.704 198.962C188.721 198 189.117 197.084 189.806 196.413L194.285 192.08L194.026 191.812L189.28 196.404C188.591 197.074 188.195 197.991 188.178 198.952C188.162 199.914 188.526 200.844 189.191 201.537C189.553 201.911 189.991 202.203 190.475 202.392C190.96 202.581 191.479 202.663 191.998 202.633Z" fill="black"/>
<path d="M195.441 221.206C194.78 220.508 193.87 220.1 192.91 220.072C191.95 220.044 191.018 220.397 190.317 221.055C189.62 221.717 189.213 222.628 189.184 223.589C189.156 224.551 189.509 225.485 190.165 226.187L194.819 231.131L200.095 226.151L195.441 221.206Z" fill="#3F3D56"/>
<path d="M204.366 230.688L199.84 225.879L194.564 230.859L199.091 235.669C199.752 236.367 200.662 236.774 201.622 236.803C202.582 236.831 203.514 236.478 204.215 235.82C204.912 235.158 205.319 234.247 205.347 233.285C205.376 232.324 205.023 231.39 204.366 230.688Z" fill="#565656"/>
<path opacity="0.2" d="M205.343 233.021C205.258 233.888 204.863 234.695 204.23 235.293C203.53 235.951 202.597 236.304 201.637 236.276C200.677 236.248 199.767 235.84 199.106 235.142L194.835 230.604L194.564 230.859L199.091 235.668C199.752 236.366 200.662 236.774 201.622 236.802C202.582 236.831 203.514 236.478 204.215 235.82C204.593 235.462 204.889 235.027 205.084 234.544C205.278 234.061 205.367 233.542 205.343 233.021Z" fill="black"/>
<path d="M169.822 220.812C169.161 220.114 168.251 219.706 167.291 219.677C166.331 219.649 165.398 220.002 164.698 220.66C164.001 221.322 163.593 222.233 163.565 223.195C163.537 224.156 163.889 225.09 164.546 225.792L169.2 230.737L174.476 225.756L169.822 220.812Z" fill="#3F3D56"/>
<path d="M178.747 230.294L174.221 225.484L168.945 230.465L173.472 235.274C174.133 235.972 175.043 236.38 176.003 236.408C176.963 236.437 177.895 236.083 178.596 235.426C179.293 234.764 179.7 233.853 179.728 232.891C179.757 231.929 179.404 230.996 178.747 230.294Z" fill="#565656"/>
<path opacity="0.2" d="M179.724 232.627C179.639 233.494 179.244 234.301 178.611 234.899C177.91 235.557 176.978 235.91 176.018 235.882C175.058 235.853 174.148 235.445 173.487 234.747L169.216 230.209L168.945 230.464L173.472 235.274C174.133 235.972 175.043 236.38 176.003 236.408C176.963 236.436 177.895 236.083 178.596 235.425C178.974 235.067 179.27 234.632 179.464 234.149C179.659 233.666 179.747 233.147 179.724 232.627Z" fill="black"/>
<path d="M177.033 207.786C177.033 208.993 176.617 210.163 175.855 211.098C175.093 212.033 174.032 212.676 172.851 212.917C172.161 213.057 171.45 213.057 170.76 212.917C169.579 212.676 168.518 212.033 167.756 211.098C166.994 210.163 166.578 208.993 166.578 207.786C166.578 206.58 166.994 205.41 167.756 204.475C168.518 203.54 169.579 202.897 170.76 202.655C171.45 202.516 172.161 202.516 172.851 202.655C174.032 202.897 175.093 203.539 175.855 204.474C176.617 205.409 177.033 206.579 177.033 207.786Z" fill="#565656"/>
<path opacity="0.2" d="M172.851 202.655V212.917C172.161 213.057 171.45 213.057 170.76 212.917V202.655C171.45 202.516 172.161 202.516 172.851 202.655Z" fill="black"/>
<path d="M179.398 186.865C179.398 188.072 178.982 189.242 178.22 190.177C177.457 191.112 176.396 191.754 175.215 191.996C174.525 192.135 173.815 192.135 173.124 191.996C171.944 191.754 170.883 191.111 170.121 190.176C169.359 189.241 168.942 188.071 168.942 186.865C168.942 185.658 169.359 184.488 170.121 183.553C170.883 182.618 171.944 181.975 173.124 181.734C173.815 181.594 174.525 181.594 175.215 181.734C176.396 181.975 177.457 182.618 178.22 183.553C178.982 184.488 179.398 185.658 179.398 186.865Z" fill="#565656"/>
<path opacity="0.2" d="M175.216 181.734V191.996C174.525 192.135 173.815 192.135 173.125 191.996V181.734C173.815 181.594 174.525 181.594 175.216 181.734Z" fill="black"/>
<path d="M179.398 216.867C179.398 218.074 178.982 219.244 178.22 220.179C177.457 221.114 176.396 221.756 175.215 221.998C174.525 222.137 173.815 222.137 173.124 221.998C171.944 221.756 170.883 221.113 170.121 220.178C169.359 219.243 168.942 218.073 168.942 216.867C168.942 215.66 169.359 214.49 170.121 213.555C170.883 212.62 171.944 211.977 173.124 211.736C173.815 211.596 174.525 211.596 175.215 211.736C176.396 211.977 177.457 212.62 178.22 213.555C178.982 214.49 179.398 215.66 179.398 216.867Z" fill="#565656"/>
<path opacity="0.2" d="M175.216 211.736V221.998C174.525 222.137 173.815 222.137 173.125 221.998V211.736C173.815 211.596 174.525 211.596 175.216 211.736Z" fill="black"/>
<path d="M192.404 231.472C192.405 232.679 191.989 233.849 191.226 234.784C190.464 235.719 189.403 236.362 188.222 236.603C187.532 236.743 186.821 236.743 186.131 236.603C184.951 236.361 183.89 235.719 183.127 234.784C182.365 233.849 181.949 232.679 181.949 231.472C181.949 230.265 182.365 229.095 183.127 228.16C183.89 227.225 184.951 226.583 186.131 226.341C186.821 226.201 187.532 226.201 188.222 226.341C189.403 226.582 190.464 227.225 191.226 228.16C191.989 229.095 192.405 230.265 192.404 231.472Z" fill="#565656"/>
<path opacity="0.2" d="M188.222 226.341V236.603C187.532 236.743 186.821 236.743 186.131 236.603V226.341C186.821 226.201 187.532 226.201 188.222 226.341Z" fill="black"/>
<path d="M203.894 204.598C204.762 205.435 205.315 206.547 205.458 207.746C205.601 208.944 205.327 210.155 204.681 211.174C204.302 211.769 203.809 212.281 203.23 212.682C202.237 213.366 201.038 213.685 199.837 213.586C198.636 213.486 197.506 212.975 196.639 212.137C195.771 211.299 195.219 210.187 195.076 208.989C194.932 207.791 195.207 206.58 195.852 205.56C196.231 204.966 196.724 204.453 197.304 204.053C198.297 203.369 199.495 203.049 200.696 203.149C201.897 203.248 203.027 203.76 203.894 204.598Z" fill="#565656"/>
<path opacity="0.2" d="M197.304 204.053L204.681 211.174C204.302 211.769 203.809 212.281 203.23 212.682L195.853 205.561C196.231 204.966 196.724 204.453 197.304 204.053Z" fill="black"/>
<path d="M205.471 216.047C206.339 216.884 206.891 217.996 207.035 219.195C207.178 220.393 206.903 221.604 206.257 222.623C205.879 223.218 205.386 223.731 204.806 224.131C203.813 224.815 202.615 225.134 201.414 225.035C200.213 224.936 199.083 224.424 198.215 223.586C197.348 222.749 196.796 221.637 196.652 220.438C196.509 219.24 196.783 218.029 197.429 217.01C197.808 216.415 198.301 215.903 198.88 215.502C199.873 214.818 201.072 214.499 202.273 214.598C203.474 214.697 204.604 215.209 205.471 216.047Z" fill="#565656"/>
<path opacity="0.2" d="M198.88 215.502L206.258 222.623C205.879 223.218 205.386 223.731 204.806 224.131L197.429 217.01C197.808 216.415 198.301 215.903 198.88 215.502Z" fill="black"/>
<path d="M158.568 218.811C159.436 219.648 159.988 220.76 160.131 221.958C160.275 223.157 160 224.368 159.354 225.387C158.976 225.982 158.482 226.494 157.903 226.895C156.91 227.579 155.712 227.898 154.511 227.799C153.31 227.699 152.18 227.187 151.312 226.35C150.444 225.512 149.892 224.4 149.749 223.202C149.606 222.004 149.88 220.792 150.526 219.773C150.904 219.179 151.398 218.666 151.977 218.265C152.97 217.582 154.168 217.262 155.369 217.362C156.57 217.461 157.7 217.973 158.568 218.811Z" fill="#565656"/>
<path opacity="0.2" d="M151.977 218.266L159.354 225.387C158.976 225.982 158.482 226.494 157.903 226.895L150.526 219.773C150.904 219.179 151.398 218.666 151.977 218.266Z" fill="black"/>
<path opacity="0.2" d="M141.695 124.785H139.724V139.391H141.695V124.785Z" fill="black"/>
<path opacity="0.2" d="M153.125 124.785H151.154V139.391H153.125V124.785Z" fill="black"/>
<path opacity="0.2" d="M164.555 124.785H162.584V139.391H164.555V124.785Z" fill="black"/>
<path opacity="0.2" d="M175.985 124.785H174.015V139.391H175.985V124.785Z" fill="black"/>
<path opacity="0.2" d="M187.416 124.785H185.445V139.391H187.416V124.785Z" fill="black"/>
<path opacity="0.2" d="M198.846 124.785H196.875V139.391H198.846V124.785Z" fill="black"/>
<path opacity="0.2" d="M210.276 124.785H208.305V139.391H210.276V124.785Z" fill="black"/>
</svg>
